<?xml version="1.0" encoding="UTF-8"?>
<svg id="Ebene_1" xmlns="http://www.w3.org/2000/svg" version="1.1" viewBox="0 0 300 150">
  <!-- Generator: Adobe Illustrator 30.4.0, SVG Export Plug-In . SVG Version: 2.1.4 Build 226)  -->
  <path d="M150,0C67.16,0,0,67.16,0,150h100c0-27.61,22.39-50,50-50s50,22.39,50,50h100C300,67.16,232.84,0,150,0ZM25,134.69c-5.35,0-9.69-4.34-9.69-9.69s4.34-9.69,9.69-9.69,9.69,4.34,9.69,9.69-4.34,9.69-9.69,9.69ZM75,134.69c-5.35,0-9.69-4.34-9.69-9.69s4.34-9.69,9.69-9.69,9.69,4.34,9.69,9.69-4.34,9.69-9.69,9.69ZM125,84.69c-5.35,0-9.69-4.34-9.69-9.69s4.34-9.69,9.69-9.69,9.69,4.34,9.69,9.69-4.34,9.69-9.69,9.69ZM125,34.69c-5.35,0-9.69-4.34-9.69-9.69s4.34-9.69,9.69-9.69,9.69,4.34,9.69,9.69-4.34,9.69-9.69,9.69ZM175,84.69c-5.35,0-9.69-4.34-9.69-9.69s4.34-9.69,9.69-9.69,9.69,4.34,9.69,9.69-4.34,9.69-9.69,9.69ZM175,34.69c-5.35,0-9.69-4.34-9.69-9.69s4.34-9.69,9.69-9.69,9.69,4.34,9.69,9.69-4.34,9.69-9.69,9.69ZM225,134.69c-5.35,0-9.69-4.34-9.69-9.69s4.34-9.69,9.69-9.69,9.69,4.34,9.69,9.69-4.34,9.69-9.69,9.69ZM275,134.69c-5.35,0-9.69-4.34-9.69-9.69s4.34-9.69,9.69-9.69,9.69,4.34,9.69,9.69-4.34,9.69-9.69,9.69Z"/>
</svg>