<?xml version="1.0" encoding="UTF-8"?>
<svg id="Ebene_1" xmlns="http://www.w3.org/2000/svg" version="1.1" viewBox="0 0 150 100">
  <!-- Generator: Adobe Illustrator 30.4.0, SVG Export Plug-In . SVG Version: 2.1.4 Build 226)  -->
  <path d="M100,0l50,100H50L0,0h100ZM125,84.69c5.35,0,9.69-4.34,9.69-9.69s-4.34-9.69-9.69-9.69-9.69,4.34-9.69,9.69,4.34,9.69,9.69,9.69ZM75,84.69c5.35,0,9.69-4.34,9.69-9.69s-4.34-9.69-9.69-9.69-9.69,4.34-9.69,9.69,4.34,9.69,9.69,9.69ZM75,34.69c5.35,0,9.69-4.34,9.69-9.69s-4.34-9.69-9.69-9.69-9.69,4.34-9.69,9.69,4.34,9.69,9.69,9.69ZM25,34.69c5.35,0,9.69-4.34,9.69-9.69s-4.34-9.69-9.69-9.69-9.69,4.34-9.69,9.69,4.34,9.69,9.69,9.69Z"/>
</svg>