<?xml version="1.0" encoding="UTF-8"?>
<svg id="Ebene_1" xmlns="http://www.w3.org/2000/svg" version="1.1" viewBox="0 0 300 300">
  <!-- Generator: Adobe Illustrator 30.4.0, SVG Export Plug-In . SVG Version: 2.1.4 Build 226)  -->
  <path d="M300,100V0C134.31,0,0,134.31,0,300h100c0-110.46,89.54-200,200-200ZM265.31,25c0-5.35,4.34-9.69,9.69-9.69s9.69,4.34,9.69,9.69-4.34,9.69-9.69,9.69-9.69-4.34-9.69-9.69ZM215.31,75c0-5.35,4.34-9.69,9.69-9.69s9.69,4.34,9.69,9.69-4.34,9.69-9.69,9.69-9.69-4.34-9.69-9.69ZM265.31,75c0-5.35,4.34-9.69,9.69-9.69s9.69,4.34,9.69,9.69-4.34,9.69-9.69,9.69-9.69-4.34-9.69-9.69ZM115.31,125c0-5.35,4.34-9.69,9.69-9.69s9.69,4.34,9.69,9.69-4.34,9.69-9.69,9.69-9.69-4.34-9.69-9.69ZM65.31,225c0-5.35,4.34-9.69,9.69-9.69s9.69,4.34,9.69,9.69-4.34,9.69-9.69,9.69-9.69-4.34-9.69-9.69ZM15.31,275c0-5.35,4.34-9.69,9.69-9.69s9.69,4.34,9.69,9.69-4.34,9.69-9.69,9.69-9.69-4.34-9.69-9.69ZM65.31,275c0-5.35,4.34-9.69,9.69-9.69s9.69,4.34,9.69,9.69-4.34,9.69-9.69,9.69-9.69-4.34-9.69-9.69Z"/>
</svg>