<?xml version="1.0" encoding="UTF-8"?>
<svg id="Ebene_1" xmlns="http://www.w3.org/2000/svg" version="1.1" viewBox="0 0 500 100">
  <!-- Generator: Adobe Illustrator 30.4.0, SVG Export Plug-In . SVG Version: 2.1.4 Build 226)  -->
  <path d="M0,100h500V0H0v100ZM15.32,25c0-5.35,4.34-9.69,9.69-9.69s9.69,4.34,9.69,9.69-4.34,9.69-9.69,9.69-9.69-4.34-9.69-9.69ZM225,15.31c5.35,0,9.69,4.34,9.69,9.69s-4.34,9.69-9.69,9.69-9.69-4.34-9.69-9.69,4.34-9.69,9.69-9.69ZM15.32,75c0-5.35,4.34-9.69,9.69-9.69s9.69,4.34,9.69,9.69-4.34,9.69-9.69,9.69-9.69-4.34-9.69-9.69ZM225,65.31c5.35,0,9.69,4.34,9.69,9.69s-4.34,9.69-9.69,9.69-9.69-4.34-9.69-9.69,4.34-9.69,9.69-9.69ZM65.32,75c0-5.35,4.34-9.69,9.69-9.69s9.69,4.34,9.69,9.69-4.34,9.69-9.69,9.69-9.69-4.34-9.69-9.69ZM265.32,75c0-5.35,4.34-9.69,9.69-9.69s9.69,4.34,9.69,9.69-4.34,9.69-9.69,9.69-9.69-4.34-9.69-9.69ZM484.68,75c0,5.35-4.34,9.68-9.68,9.68s-9.68-4.34-9.68-9.68,4.34-9.68,9.68-9.68,9.68,4.34,9.68,9.68ZM434.68,75c0,5.35-4.34,9.68-9.68,9.68s-9.68-4.34-9.68-9.68,4.34-9.68,9.68-9.68,9.68,4.34,9.68,9.68ZM65.32,25c0-5.35,4.34-9.69,9.69-9.69s9.69,4.34,9.69,9.69-4.34,9.69-9.69,9.69-9.69-4.34-9.69-9.69ZM265.32,25c0-5.35,4.34-9.69,9.69-9.69s9.69,4.34,9.69,9.69-4.34,9.69-9.69,9.69-9.69-4.34-9.69-9.69ZM484.68,25c0,5.35-4.34,9.68-9.68,9.68s-9.68-4.34-9.68-9.68,4.34-9.68,9.68-9.68,9.68,4.34,9.68,9.68ZM434.68,25c0,5.35-4.34,9.68-9.68,9.68s-9.68-4.34-9.68-9.68,4.34-9.68,9.68-9.68,9.68,4.34,9.68,9.68Z"/>
</svg>