<?xml version="1.0" encoding="UTF-8"?>
<svg id="Ebene_1" xmlns="http://www.w3.org/2000/svg" version="1.1" viewBox="0 0 300 100">
  <!-- Generator: Adobe Illustrator 30.4.0, SVG Export Plug-In . SVG Version: 2.1.4 Build 226)  -->
  <path d="M0,0v100h300V0H0ZM25,84.69c-5.35,0-9.69-4.34-9.69-9.69s4.34-9.69,9.69-9.69,9.69,4.34,9.69,9.69-4.34,9.69-9.69,9.69ZM25,34.69c-5.35,0-9.69-4.34-9.69-9.69s4.34-9.69,9.69-9.69,9.69,4.34,9.69,9.69-4.34,9.69-9.69,9.69ZM75,84.69c-5.35,0-9.69-4.34-9.69-9.69s4.34-9.69,9.69-9.69,9.69,4.34,9.69,9.69-4.34,9.69-9.69,9.69ZM75,34.69c-5.35,0-9.69-4.34-9.69-9.69s4.34-9.69,9.69-9.69,9.69,4.34,9.69,9.69-4.34,9.69-9.69,9.69ZM225,84.69c-5.35,0-9.69-4.34-9.69-9.69s4.34-9.69,9.69-9.69,9.69,4.34,9.69,9.69-4.34,9.69-9.69,9.69ZM225,34.69c-5.35,0-9.69-4.34-9.69-9.69s4.34-9.69,9.69-9.69,9.69,4.34,9.69,9.69-4.34,9.69-9.69,9.69ZM275,84.69c-5.35,0-9.69-4.34-9.69-9.69s4.34-9.69,9.69-9.69,9.69,4.34,9.69,9.69-4.34,9.69-9.69,9.69ZM275,34.69c-5.35,0-9.69-4.34-9.69-9.69s4.34-9.69,9.69-9.69,9.69,4.34,9.69,9.69-4.34,9.69-9.69,9.69Z"/>
</svg>