<?xml version="1.0" encoding="UTF-8"?>
<svg id="Ebene_1" xmlns="http://www.w3.org/2000/svg" version="1.1" viewBox="0 0 400 400">
  <!-- Generator: Adobe Illustrator 30.4.0, SVG Export Plug-In . SVG Version: 2.1.4 Build 226)  -->
  <path d="M0,400h100c0-165.69,134.31-300,300-300V0C179.09,0,0,179.09,0,400ZM25,384.69c-5.35,0-9.69-4.34-9.69-9.69s4.34-9.69,9.69-9.69,9.69,4.34,9.69,9.69-4.34,9.69-9.69,9.69ZM75,384.69c-5.35,0-9.69-4.34-9.69-9.69s4.34-9.69,9.69-9.69,9.69,4.34,9.69,9.69-4.34,9.69-9.69,9.69ZM75,334.69c-5.35,0-9.69-4.34-9.69-9.69s4.34-9.69,9.69-9.69,9.69,4.34,9.69,9.69-4.34,9.69-9.69,9.69ZM75,234.69c-5.35,0-9.69-4.34-9.69-9.69s4.34-9.69,9.69-9.69,9.69,4.34,9.69,9.69-4.34,9.69-9.69,9.69ZM125,234.69c-5.35,0-9.69-4.34-9.69-9.69s4.34-9.69,9.69-9.69,9.69,4.34,9.69,9.69-4.34,9.69-9.69,9.69ZM225,134.69c-5.35,0-9.69-4.34-9.69-9.69s4.34-9.69,9.69-9.69,9.69,4.34,9.69,9.69-4.34,9.69-9.69,9.69ZM225,84.69c-5.35,0-9.69-4.34-9.69-9.69s4.34-9.69,9.69-9.69,9.69,4.34,9.69,9.69-4.34,9.69-9.69,9.69ZM325,84.69c-5.35,0-9.69-4.34-9.69-9.69s4.34-9.69,9.69-9.69,9.69,4.34,9.69,9.69-4.34,9.69-9.69,9.69ZM375,84.69c-5.35,0-9.69-4.34-9.69-9.69s4.34-9.69,9.69-9.69,9.69,4.34,9.69,9.69-4.34,9.69-9.69,9.69ZM375,34.69c-5.35,0-9.69-4.34-9.69-9.69s4.34-9.69,9.69-9.69,9.69,4.34,9.69,9.69-4.34,9.69-9.69,9.69Z"/>
</svg>