<?xml version="1.0" encoding="UTF-8"?>
<svg id="Ebene_1" xmlns="http://www.w3.org/2000/svg" version="1.1" viewBox="0 0 500 250">
  <!-- Generator: Adobe Illustrator 30.4.0, SVG Export Plug-In . SVG Version: 2.1.4 Build 226)  -->
  <path d="M250,0C111.93,0,0,111.93,0,250h100c0-82.84,67.16-150,150-150s150,67.16,150,150h100C500,111.93,388.07,0,250,0ZM25,234.69c-5.35,0-9.69-4.34-9.69-9.69s4.34-9.68,9.69-9.68,9.69,4.34,9.69,9.68-4.34,9.69-9.69,9.69ZM75,234.69c-5.35,0-9.69-4.34-9.69-9.69s4.34-9.68,9.69-9.68,9.69,4.34,9.69,9.68-4.34,9.69-9.69,9.69ZM75,184.69c-5.35,0-9.69-4.34-9.69-9.69s4.34-9.68,9.69-9.68,9.69,4.34,9.69,9.68-4.34,9.69-9.69,9.69ZM75,134.69c-5.35,0-9.69-4.34-9.69-9.69s4.34-9.68,9.69-9.68,9.69,4.34,9.69,9.68-4.34,9.69-9.69,9.69ZM175,84.69c-5.35,0-9.69-4.34-9.69-9.69s4.34-9.68,9.69-9.68,9.69,4.34,9.69,9.68-4.34,9.69-9.69,9.69ZM225,84.69c-5.35,0-9.69-4.34-9.69-9.69s4.34-9.68,9.69-9.68,9.69,4.34,9.69,9.68-4.34,9.69-9.69,9.69ZM225,34.69c-5.35,0-9.69-4.34-9.69-9.69s4.34-9.68,9.69-9.68,9.69,4.34,9.69,9.68-4.34,9.69-9.69,9.69ZM275,84.69c-5.35,0-9.69-4.34-9.69-9.69s4.34-9.68,9.69-9.68,9.69,4.34,9.69,9.68-4.34,9.69-9.69,9.69ZM275,34.69c-5.35,0-9.69-4.34-9.69-9.69s4.34-9.68,9.69-9.68,9.69,4.34,9.69,9.68-4.34,9.69-9.69,9.69ZM325,84.69c-5.35,0-9.69-4.34-9.69-9.69s4.34-9.68,9.69-9.68,9.69,4.34,9.69,9.68-4.34,9.69-9.69,9.69ZM425,234.69c-5.35,0-9.69-4.34-9.69-9.69s4.34-9.68,9.69-9.68,9.69,4.34,9.69,9.68-4.34,9.69-9.69,9.69ZM425,184.69c-5.35,0-9.69-4.34-9.69-9.69s4.34-9.68,9.69-9.68,9.69,4.34,9.69,9.68-4.34,9.69-9.69,9.69ZM425,134.69c-5.35,0-9.69-4.34-9.69-9.69s4.34-9.68,9.69-9.68,9.69,4.34,9.69,9.68-4.34,9.69-9.69,9.69ZM475,234.69c-5.35,0-9.69-4.34-9.69-9.69s4.34-9.68,9.69-9.68,9.69,4.34,9.69,9.68-4.34,9.69-9.69,9.69Z"/>
</svg>