<?xml version="1.0" encoding="UTF-8"?>
<svg id="Ebene_1" xmlns="http://www.w3.org/2000/svg" version="1.1" viewBox="0 0 200 200">
  <!-- Generator: Adobe Illustrator 30.4.0, SVG Export Plug-In . SVG Version: 2.1.4 Build 226)  -->
  <path d="M0,200h100c0-55.23,44.77-100,100-100V0C89.54,0,0,89.54,0,200ZM25,184.69c-5.35,0-9.69-4.34-9.69-9.69s4.34-9.69,9.69-9.69,9.69,4.34,9.69,9.69-4.34,9.69-9.69,9.69ZM75,184.69c-5.35,0-9.69-4.34-9.69-9.69s4.34-9.69,9.69-9.69,9.69,4.34,9.69,9.69-4.34,9.69-9.69,9.69ZM75,134.69c-5.35,0-9.69-4.34-9.69-9.69s4.34-9.69,9.69-9.69,9.69,4.34,9.69,9.69-4.34,9.69-9.69,9.69ZM125,84.69c-5.35,0-9.69-4.34-9.69-9.69s4.34-9.69,9.69-9.69,9.69,4.34,9.69,9.69-4.34,9.69-9.69,9.69ZM175,84.69c-5.35,0-9.69-4.34-9.69-9.69s4.34-9.69,9.69-9.69,9.69,4.34,9.69,9.69-4.34,9.69-9.69,9.69ZM175,34.69c-5.35,0-9.69-4.34-9.69-9.69s4.34-9.69,9.69-9.69,9.69,4.34,9.69,9.69-4.34,9.69-9.69,9.69Z"/>
</svg>