<?xml version="1.0" encoding="UTF-8"?>
<svg id="Ebene_1" xmlns="http://www.w3.org/2000/svg" version="1.1" viewBox="0 0 200 100">
  <!-- Generator: Adobe Illustrator 30.4.0, SVG Export Plug-In . SVG Version: 2.1.4 Build 226)  -->
  <path d="M0,100h200V0H0v100ZM184.69,75c0,5.35-4.34,9.69-9.69,9.69s-9.69-4.34-9.69-9.69,4.34-9.69,9.69-9.69,9.69,4.34,9.69,9.69ZM134.69,75c0,5.35-4.34,9.69-9.69,9.69s-9.69-4.34-9.69-9.69,4.34-9.69,9.69-9.69,9.69,4.34,9.69,9.69ZM84.69,75c0,5.35-4.34,9.69-9.69,9.69s-9.69-4.34-9.69-9.69,4.34-9.69,9.69-9.69,9.69,4.34,9.69,9.69ZM34.69,75c0,5.35-4.34,9.69-9.69,9.69s-9.69-4.34-9.69-9.69,4.34-9.69,9.69-9.69,9.69,4.34,9.69,9.69ZM184.69,25c0,5.35-4.34,9.69-9.69,9.69s-9.69-4.34-9.69-9.69,4.34-9.69,9.69-9.69,9.69,4.34,9.69,9.69ZM134.69,25c0,5.35-4.34,9.69-9.69,9.69s-9.69-4.34-9.69-9.69,4.34-9.69,9.69-9.69,9.69,4.34,9.69,9.69ZM84.69,25c0,5.35-4.34,9.69-9.69,9.69s-9.69-4.34-9.69-9.69,4.34-9.69,9.69-9.69,9.69,4.34,9.69,9.69ZM34.69,25c0,5.35-4.34,9.69-9.69,9.69s-9.69-4.34-9.69-9.69,4.34-9.69,9.69-9.69,9.69,4.34,9.69,9.69Z"/>
</svg>