<?xml version="1.0" encoding="UTF-8"?>
<svg id="Layer_1" xmlns="http://www.w3.org/2000/svg" version="1.1" viewBox="0 0 36 36">
  <!-- Generator: Adobe Illustrator 30.3.0, SVG Export Plug-In . SVG Version: 2.1.3 Build 182)  -->
  <path d="M30.05,9.33l-5.62-5.62c-.21-.21-.5-.33-.8-.33h-11.25c-1.24,0-2.25,1.01-2.25,2.25v2.25h-2.25c-1.24,0-2.25,1.01-2.25,2.25v20.25c0,1.24,1.01,2.25,2.25,2.25h15.75c1.24,0,2.25-1.01,2.25-2.25v-2.25h2.25c1.24,0,2.25-1.01,2.25-2.25v-15.75c0-.3-.12-.58-.33-.8ZM23.62,30.38H7.88V10.12h10.78l4.97,4.97v15.28ZM28.12,25.88h-2.25v-11.25c0-.3-.12-.58-.33-.8l-5.62-5.62c-.21-.21-.5-.33-.8-.33h-6.75v-2.25h10.78l4.97,4.97v15.28Z"/>
</svg>